<svg width="800" height="800" viewBox="0 0 56 56" fill="#77b80f" xml:space="preserve" xmlns="http://www.w3.org/2000/svg"><path d="M48.2 25.3c-.3-.2-.8-.1-1.1.1l-7.7 6.1v-5.8c0-.4-.2-.7-.5-.9s-.7-.1-1 .1l-9.4 6.8-.5-6.3c0-.3-.2-.7-.5-.8-.3-.2-.7-.1-1 0l-11.3 6.8v-9.2c.7-.4 1.3-.9 1.7-1.6.5.2 1.1.2 1.7.2 2.2 0 4.1-1.2 5.1-3 .3 0 .6.1 1 .1 4.1 0 7.4-3.3 7.4-7.4S28.8 3 24.7 3C21 3 18 5.6 17.4 9.2c-2.6.5-4.5 2.7-4.7 5.4-1.9.3-3.4 2-3.4 4v.2h-1c-.6 0-1 .4-1 1V52c0 .6.4 1 1 1h39.5c.6 0 1-.4 1-1V26.2q-.15-.6-.6-.9m-36.9-6.7c0-1.2.9-2.1 2.1-2.1h.3c.3 0 .6-.1.8-.3s.3-.5.3-.8v-.5c0-2 1.6-3.8 3.6-3.9.5 0 .9-.4.9-.9.1-2.9 2.5-5.1 5.4-5.1 3 0 5.4 2.4 5.4 5.5 0 3-2.4 5.4-5.4 5.4-.4 0-.9-.1-1.3-.2-.5-.1-1 .1-1.2.6-.6 1.5-2 2.5-3.6 2.5-.6 0-1.2-.1-1.8-.4q-.45-.15-.9 0c-.3.1-.5.4-.6.7 0 .2-.1.4-.2.6-.1-.5-.5-.8-1-.8h-2.9c.1-.1.1-.2.1-.3m-.8 2.2h2.7v1.6H9.3v-1.6zM46.7 51H9.3V24.5h3.9v8.7c0 .4.2.7.5.9s.7.2 1 0l11.4-6.8.5 6.4c0 .4.2.7.6.8.3.2.7.1 1-.1l9.3-6.7v5.9q0 .6.6.9c.3.2.8.1 1.1-.1l7.7-6.1V51z"/><path d="M40.3 48h4.3c.6 0 1-.4 1-1v-4.3c0-.6-.4-1-1-1h-4.3c-.6 0-1 .4-1 1V47c0 .6.4 1 1 1m1-4.3h2.3V46h-2.3zm-13.6-2h-4.3c-.6 0-1 .4-1 1V47c0 .6.4 1 1 1h4.3c.6 0 1-.4 1-1v-4.3c0-.5-.5-1-1-1m-1 4.3h-2.3v-2.3h2.3zm-7.4-9.7H15c-.6 0-1 .4-1 1v4.3c0 .6.4 1 1 1h4.3c.6 0 1-.4 1-1v-4.3c0-.5-.5-1-1-1m-1 4.4H16v-2.3h2.3zm17.8-4.4h-4.3c-.6 0-1 .4-1 1v4.3c0 .6.4 1 1 1h4.3c.6 0 1-.4 1-1v-4.3c0-.5-.4-1-1-1m-1 4.4h-2.3v-2.3h2.3z"/></svg>