<svg xmlns="http://www.w3.org/2000/svg" fill="#77b80f" viewBox="0 0 60 60" xml:space="preserve"><path d="M58 23v-.764c0-1.76-.978-3.343-2.553-4.131A2.6 2.6 0 0 1 54 15.764V7h.688C55.412 7 56 6.412 56 5.688V3.812A3.815 3.815 0 0 0 52.189 0h-6.378A3.815 3.815 0 0 0 42 3.812v1.877C42 6.412 42.588 7 43.312 7H44v8.764c0 .998-.555 1.896-1.447 2.342A4.59 4.59 0 0 0 40 22.236V23h-1v-.764c0-1.76-.978-3.343-2.553-4.131A2.6 2.6 0 0 1 35 15.764V7h.688C36.412 7 37 6.412 37 5.688V3.812A3.815 3.815 0 0 0 33.189 0h-6.378A3.815 3.815 0 0 0 23 3.812v1.877C23 6.412 23.588 7 24.312 7H25v8.764c0 .998-.555 1.896-1.447 2.342A4.59 4.59 0 0 0 21 22.236V23h-1v-.764c0-1.76-.978-3.343-2.553-4.131A2.6 2.6 0 0 1 16 15.764V7h.688C17.412 7 18 6.412 18 5.688V3.812A3.815 3.815 0 0 0 14.189 0H7.811A3.815 3.815 0 0 0 4 3.812v1.877C4 6.412 4.588 7 5.312 7H6v8.764c0 .998-.555 1.896-1.447 2.342A4.59 4.59 0 0 0 2 22.236V23H0v37h60V23zM44 3.812c0-.706.41-1.312 1-1.611V3a1 1 0 1 0 2 0V2h1v1a1 1 0 1 0 2 0V2h1v1a1 1 0 1 0 2 0v-.799c.59.299 1 .905 1 1.611V5H44zm-2 18.424c0-.998.555-1.896 1.447-2.342A4.59 4.59 0 0 0 46 15.764V7h6v8.764c0 1.76.978 3.343 2.553 4.131A2.6 2.6 0 0 1 56 22.236V23H42zM25 3.812c0-.706.41-1.312 1-1.611V3a1 1 0 1 0 2 0V2h1v1a1 1 0 1 0 2 0V2h1v1a1 1 0 1 0 2 0v-.799c.59.299 1 .905 1 1.611V5H25zm-2 18.424c0-.998.555-1.896 1.447-2.342A4.59 4.59 0 0 0 27 15.764V7h6v8.764c0 1.76.978 3.343 2.553 4.131A2.6 2.6 0 0 1 37 22.236V23H23zM6 3.812c0-.706.41-1.312 1-1.611V3a1 1 0 1 0 2 0V2h1v1a1 1 0 1 0 2 0V2h1v1a1 1 0 1 0 2 0v-.799c.59.299 1 .905 1 1.611V5H6zM4 22.236c0-.998.555-1.896 1.447-2.342A4.59 4.59 0 0 0 8 15.764V7h6v8.764c0 1.76.978 3.343 2.553 4.131A2.6 2.6 0 0 1 18 22.236V23H4zM47.414 47l4-4-1-1H58v10h-7.586l1-1zm-1.828-7 3 3-4 4 4 4-3 3H58v4H2v-1h9a1 1 0 1 0 0-2H2v-1h7a1 1 0 1 0 0-2H2v-1h5a1 1 0 1 0 0-2H2v-1h3a1 1 0 1 0 0-2H2V25h56v15z"/></svg>