<svg width="800" height="800" fill="#77b80f" viewBox="0 0 1024 1024" class="icon" xmlns="http://www.w3.org/2000/svg"><path d="M824.8 1003.2H203.2c-12.8 0-25.6-2.4-37.6-7.2-11.2-4.8-21.6-12-30.4-20.8s-16-19.2-20.8-30.4c-4.8-12-7.2-24-7.2-37.6V260c0-12.8 2.4-25.6 7.2-37.6 4.8-11.2 12-21.6 20.8-30.4s19.2-16 30.4-20.8c12-4.8 24-7.2 37.6-7.2h94.4v48h-94.4c-26.4 0-48 21.6-48 48v647.2c0 26.4 21.6 48 48 48h621.6c26.4 0 48-21.6 48-48V260c0-26.4-21.6-48-48-48h-94.4v-48H824c12.8 0 25.6 2.4 37.6 7.2 11.2 4.8 21.6 12 30.4 20.8s16 19.2 20.8 30.4c4.8 12 7.2 24 7.2 37.6v647.2c0 12.8-2.4 25.6-7.2 37.6-4.8 11.2-12 21.6-20.8 30.4s-19.2 16-30.4 20.8-24 7.2-36.8 7.2"/><path d="M752.8 308H274.4V152.8c0-32.8 26.4-60 60-60H396c22.4-44 67.2-72.8 117.6-72.8s95.2 28.8 117.6 72.8h61.6c32.8 0 60 26.4 60 60zm-430.4-48h382.4V152.8c0-6.4-5.6-12-12-12h-94.4l-5.6-16c-12-33.6-43.2-56-79.2-56s-67.2 22.4-79.2 56l-5.6 16h-94.4c-6.4 0-12 5.6-12 12zm110.4 532q-9.6 0-16.8-7.2L252.8 621.6q-7.2-7.2-7.2-16.8c0-9.6 2.4-12 7.2-16.8q7.2-7.2 16.8-7.2c9.6 0 12 2.4 16.8 7.2l132 132c4 4 8.8 5.6 13.6 5.6s10.4-1.6 13.6-5.6l295.2-295.2q7.2-7.2 16.8-7.2c9.6 0 12 2.4 16.8 7.2 9.6 9.6 9.6 24 0 33.6L449.6 784.8c-4.8 4-11.2 7.2-16.8 7.2"/></svg>