<svg xmlns="http://www.w3.org/2000/svg" viewBox="0 0 60 60" fill="#77b80f" xml:space="preserve"><path d="M42.3 31.1c0-.3-.1-.5-.3-.7l-4.2-4.2c-.4-.4-1-.4-1.4 0l-1.9 1.9c-.2-.1-.3-.1-.4-.2V25c0-.6-.4-1-1-1h-6c-.6 0-1 .4-1 1v2.7c-.1.1-.3.1-.4.2L23.8 26c-.2-.2-.4-.3-.7-.3s-.5.1-.7.3l-4.2 4.2c-.2.2-.3.4-.3.7s.1.5.3.7l1.9 1.9c-.1.2-.1.3-.2.4H17c-.6 0-1 .4-1 1v6c0 .6.4 1 1 1h2.8c.1.1.1.3.2.4l-1.9 1.9c-.2.2-.3.4-.3.7s.1.5.3.7l4.2 4.2c.4.4 1 .4 1.4 0l1.9-1.9c.2.1.3.1.4.2V51c0 .6.4 1 1 1h6c.6 0 1-.4 1-1v-2.8c.1-.1.3-.1.4-.2l1.9 1.9c.4.4 1 .4 1.4 0l4.2-4.2c.2-.2.3-.4.3-.7s-.1-.5-.3-.7L40 42.4c.1-.1.1-.3.2-.4H43c.6 0 1-.4 1-1v-6c0-.6-.4-1-1-1h-2.8c-.1-.1-.1-.3-.2-.4l2-1.8c.2-.2.3-.4.3-.7M42 36v4h-2.5c-.5 0-.9.4-1 .8 0 .2-.4 1-.5 1.2s-.2.4-.2.6c0 .3.1.5.3.7l1.7 1.7-2.8 2.8-1.7-1.7c-.2-.2-.4-.3-.7-.3-.2 0-.4.1-.6.2s-1 .4-1.2.5c-.5.1-.8.5-.8 1V50h-4v-2.5c0-.3-.1-.5-.3-.7-.2-.3-1.9-1-2.3-1-.3 0-.5.1-.7.3L23 47.8 20.2 45l1.7-1.7c.2-.2.3-.4.3-.7 0-.2-.1-.4-.2-.6s-.4-1-.5-1.2c-.1-.5-.5-.8-1-.8H18v-4h2.5c.3 0 .5-.1.7-.3.3-.2 1-1.9 1-2.3 0-.3-.1-.5-.3-.7L20.2 31l2.8-2.8 1.7 1.7c.2.2.4.3.7.3.2 0 .4-.1.6-.2s1-.4 1.2-.5c.5-.1.8-.5.8-1V26h4v2.5c0 .3.1.5.3.7.2.3 1.9 1 2.3 1 .3 0 .5-.1.7-.3l1.7-1.7 2.8 2.8-1.7 1.7c-.2.2-.3.4-.3.7 0 .2.1.4.2.6s.4 1 .5 1.2c.1.5.5.8 1 .8z"/><path d="M30 34c-2.2 0-4 1.8-4 4s1.8 4 4 4 4-1.8 4-4-1.8-4-4-4m0 6c-1.1 0-2-.9-2-2s.9-2 2-2 2 .9 2 2-.9 2-2 2"/><path d="M47.1 27.5C49 30.6 50 34.2 50 38c0 11-9 20-20 20-4.1 0-8.1-1.3-11.4-3.6L17.4 56c3.7 2.6 8.1 4 12.6 4 12.1 0 22-9.9 22-22 0-4.1-1.1-8.1-3.2-11.6zM11.9 46.6C10.7 44 10 41 10 38c0-9.5 6.8-17.8 16.2-19.6.5-.1.8-.5.8-1V6h6v11.4c0 .5.3.9.8 1 2.5.5 4.7 1.4 6.7 2.6l1-1.7c-1.9-1.2-4.1-2.1-6.5-2.7V6h3c.6 0 1-.4 1-1V1c0-.6-.4-1-1-1H22c-.6 0-1 .4-1 1v4c0 .6.4 1 1 1h3v10.6C15.1 18.9 8 27.8 8 38c0 3.3.7 6.6 2.1 9.4zM23 2h14v2H23zm36.7 21.3-3-3-1.4 1.4 1.3 1.3H41v2h15.6l-1.3 1.3 1.4 1.4 3-3c.4-.4.4-1 0-1.4M19 52v-2H3.4l1.3-1.3-1.4-1.4-3 3c-.4.4-.4 1 0 1.4l3 3 1.4-1.4L3.4 52z"/><path d="M29 20h2v2h-2zm0 34h2v2h-2zm17-17h2v2h-2zm-34 0h2v2h-2z"/></svg>